<?xml version="1.0" encoding="UTF-8"?>
<svg width="78px" height="18px" viewBox="0 0 78 18" version="1.1" xmlns="http://www.w3.org/2000/svg" xmlns:xlink="http://www.w3.org/1999/xlink">
    <!-- Generator: Sketch 60 (88103) - https://sketch.com -->
    <title>Group 17</title>
    <desc>Created with Sketch.</desc>
    <g id="Page-1" stroke="none" stroke-width="1" fill="none" fill-rule="evenodd">
        <g id="partial-state-overzicht-bookmark-vote" transform="translate(-15.000000, -11.000000)">
            <g id="Group-17" transform="translate(15.000000, 11.000000)">
                <g id="logo" fill-rule="nonzero">
                    <polygon id="Shape" fill="#D82331" points="36.8180337 2.80676927 34 15 30 15 32.7653545 2.80676927 18 2.80676927 18.6159906 0 42 0 41.3970417 2.80676927"></polygon>
                    <polyline id="Shape" fill="#D82331" points="27.3953842 8.99594118 28 6 17.6176839 6 17 9 27.39521 8.99594118"></polyline>
                    <path d="M8.00110622,3.02594118 L9.62101298,3.02594118 C10.8985171,3.02594118 12.2374826,3.17558824 11.8757342,4.68935294 C11.5102194,6.21705882 10.251205,6.31764706 8.97404325,6.31764706 L7.34763084,6.31764706 L6.67361129,9.19129412 L8.23941844,9.19129412 C9.7932415,9.19552941 10.2453841,10.2121765 10.2453841,11.7981176 C10.2453841,12.8842941 10.274146,13.8522353 10.1726236,15 L26.4059315,15 L27,12 L14.1162457,12 C14.1227513,11.8185882 14.1282298,11.5764706 14.1307978,11.3445882 C14.1432955,10.2832941 14.1664077,8.08482353 12.0760397,7.77582353 L12.0931598,7.69288235 C14.2573156,7.28117647 15.3793689,6.50117647 16.1103985,3.90352941 C16.547133,0.969529412 14.1203545,0.024 11.3100851,0.0695294118 L8.64876077,0 L8.00110622,3.02594118 Z M1,15 L1.92482946,15 L5.08058314,0.00352941176 L4.15558248,0.00352941176 L1,15 Z" id="Shape" fill="#D82331"></path>
                    <path d="M1.34959317,16.870178 C1.33329004,16.7648368 1.3203834,16.6618694 1.31732657,16.5507418 L1.3105336,16.5507418 C1.26162422,16.6565282 1.20286503,16.772997 1.13442587,16.8934718 L0.916031907,17.2551929 L1.41463585,17.2551929 L1.34959317,16.870178 Z M1.52247424,17.9630564 L1.46694172,17.6066766 L0.720564216,17.6066766 L0.511680411,17.9632047 L0,17.9632047 L1.150729,16.0373887 L1.71794193,16.0373887 L2.05368444,17.9632047 L1.52247424,17.9632047 L1.52247424,17.9630564 Z M3.73783134,16.870178 C3.72135839,16.7648368 3.70828193,16.6618694 3.70505527,16.5507418 L3.6982623,16.5507418 C3.64952274,16.6565282 3.59093338,16.772997 3.52249422,16.8934718 L3.30393043,17.2551929 L3.80287403,17.2551929 L3.73766152,16.870178 L3.73783134,16.870178 Z M3.91037276,17.9630564 L3.85501006,17.6066766 L3.10846274,17.6066766 L2.89957894,17.9632047 L2.38806835,17.9632047 L3.53879734,16.0373887 L4.10601028,16.0373887 L4.44175279,17.9632047 L3.91020294,17.9632047 L3.91037276,17.9630564 Z M5.88610788,16.3882789 C5.82446168,16.3882789 5.76247584,16.3912463 5.72986958,16.3937685 L5.62237085,16.8875371 C5.65158061,16.8905045 5.69081001,16.8934718 5.74634254,16.8934718 C5.99088943,16.8934718 6.24953173,16.7476261 6.24953173,16.5621662 C6.24953173,16.4505935 6.07868856,16.3881306 5.88610788,16.3881306 L5.88610788,16.3882789 Z M6.16173261,17.1467359 C6.1973957,17.2097923 6.23985175,17.2862018 6.27891133,17.3606825 L6.59189739,17.9630564 L6.01177781,17.9630564 L5.66278901,17.2097923 L5.64325923,17.2097923 L5.48022796,17.962908 L4.98485068,17.962908 L5.40193899,16.037092 C5.58755688,16.0255193 5.81919713,16.022997 6.0635742,16.022997 C6.55912131,16.022997 6.78413842,16.1854599 6.78413842,16.477003 C6.78413842,16.8045994 6.55232834,17.0412463 6.16139296,17.1467359 L6.16173261,17.1467359 Z M8.26245836,16.3995549 C8.15801645,16.3995549 8.09297377,16.3995549 8.03421459,16.4054896 L7.77676105,17.5835312 C7.82261359,17.5894659 7.88425979,17.5946588 7.93639583,17.5946588 C8.5297617,17.5946588 8.71860624,17.0728487 8.71860624,16.7620178 C8.71860624,16.5364985 8.60822049,16.3995549 8.26228853,16.3995549 L8.26245836,16.3995549 Z M7.86473,17.9774481 C7.59776631,17.9774481 7.39567548,17.968546 7.20003796,17.960089 L7.61712627,16.0428783 C7.78661086,16.0345697 8.06716049,16.0256677 8.32767086,16.0256677 C8.91458341,16.0256677 9.25049574,16.2485163 9.25049574,16.7189911 C9.25049574,17.3697329 8.78738506,17.9775964 7.86473,17.9775964 L7.86473,17.9774481 Z M10.1582063,17.962908 L9.6629988,17.962908 L10.0800871,16.037092 L10.5756342,16.037092 L10.1582063,17.962908 L10.1582063,17.962908 Z M12.8288621,16.5020772 C12.6624344,16.4424332 12.4569471,16.405638 12.2777825,16.405638 C11.7397793,16.405638 11.4334164,16.7902077 11.4334164,17.198368 C11.4334164,17.4096439 11.5607846,17.5918398 11.9126604,17.5918398 C11.9975725,17.5918398 12.082145,17.5833828 12.1572073,17.5636499 L12.2939158,16.9354599 L12.7926896,16.9354599 L12.5872022,17.8716617 C12.3591283,17.9513353 12.0756917,17.9942136 11.8246914,17.9942136 C11.1691699,17.9942136 10.8957529,17.6918398 10.8957529,17.2609792 C10.8957529,16.5562315 11.4757026,16.008457 12.3232954,16.008457 C12.5481427,16.008457 12.7763864,16.034273 12.9754204,16.0829377 L12.8286923,16.5019288 L12.8288621,16.5020772 Z M16.2273847,16.4054896 C15.7972199,16.4054896 15.5395965,16.8135015 15.5395965,17.2152819 C15.5395965,17.4609792 15.6669647,17.5921365 15.9115116,17.5921365 C16.3185803,17.5921365 16.6055832,17.2013353 16.6055832,16.7649852 C16.6055832,16.5537092 16.4884045,16.405638 16.2275545,16.405638 L16.2273847,16.4054896 Z M15.8361096,18 C15.2655002,18 15.00482,17.7262611 15.00482,17.2922849 C15.00482,16.6019288 15.5691459,16 16.3090701,16 C16.853187,16 17.1335668,16.2599407 17.1335668,16.7136499 C17.1335668,17.4581602 16.546824,18 15.8361096,18 L15.8361096,18 Z M19.3259976,17.962908 L18.7426514,17.962908 L18.4131923,17.1442136 C18.3547728,16.9985163 18.3092599,16.8474777 18.2730874,16.7188427 C18.2537274,16.8672107 18.2309709,16.9958457 18.1949682,17.155638 L18.0224268,17.9627596 L17.5397863,17.9627596 L17.9572143,16.0369436 L18.5437872,16.0369436 L18.8599999,16.7900593 C18.9252124,16.9502967 18.9771786,17.1154303 19.0196347,17.2639466 C19.0395041,17.1096439 19.0717707,16.924184 19.1079433,16.7698813 L19.2641816,16.0369436 L19.746822,16.0369436 L19.3259976,17.9627596 L19.3259976,17.962908 Z M21.1826859,16.3995549 C21.078244,16.3995549 21.0132013,16.3995549 20.9542723,16.4054896 L20.6968188,17.5835312 C20.7423317,17.5894659 20.8044874,17.5946588 20.8564536,17.5946588 C21.4499893,17.5946588 21.6390036,17.0728487 21.6390036,16.7620178 C21.6390036,16.5364985 21.5282782,16.3995549 21.1826859,16.3995549 L21.1826859,16.3995549 Z M20.7847877,17.9774481 C20.5176542,17.9774481 20.3153936,17.968546 20.1197561,17.960089 L20.537184,16.0428783 C20.7066686,16.0345697 20.9872182,16.0256677 21.2478984,16.0256677 C21.8344713,16.0256677 22.1705535,16.2485163 22.1705535,16.7189911 C22.1705535,17.3697329 21.7074428,17.9775964 20.7847877,17.9775964 L20.7847877,17.9774481 Z M25.486032,16.3882789 C25.4242159,16.3882789 25.3620603,16.3912463 25.3297937,16.3937685 L25.2219553,16.8875371 C25.2515047,16.8905045 25.2903944,16.8934718 25.345927,16.8934718 C25.5904739,16.8934718 25.756562,16.7476261 25.756562,16.5621662 C25.756562,16.4505935 25.6784428,16.3881306 25.486032,16.3881306 L25.486032,16.3882789 Z M25.6687628,17.1467359 C25.7044259,17.2097923 25.746882,17.2862018 25.7859416,17.3606825 L26.0987578,17.9630564 L25.5184684,17.9630564 L25.1696494,17.2097923 L25.1504593,17.2097923 L24.987428,17.962908 L24.4918809,17.962908 L24.9087994,16.037092 C25.0950966,16.0255193 25.3262274,16.022997 25.5707742,16.022997 C26.0661515,16.022997 26.290829,16.1854599 26.290829,16.477003 C26.290829,16.8045994 26.059868,17.0412463 25.668593,17.1467359 L25.6687628,17.1467359 Z M28.8572128,17.962908 L28.2509403,17.962908 L28.1925207,17.055638 C28.1860674,16.9244807 28.1925207,16.775816 28.2084842,16.6164688 L28.2050877,16.6164688 C28.1563482,16.7648368 28.1011553,16.9047478 28.0323765,17.0412463 L27.5733416,17.9630564 L27.0023925,17.9630564 L26.8886103,16.0372404 L27.3968942,16.0372404 L27.4458036,16.9764095 C27.4520871,17.1017804 27.4424071,17.2413947 27.4295005,17.3810089 L27.432897,17.3810089 C27.4846933,17.2468843 27.5341122,17.115727 27.5989851,16.9845697 L28.0877392,16.0373887 L28.5999291,16.0373887 L28.6814447,16.9673591 C28.690785,17.078635 28.690785,17.2210682 28.6780482,17.3670623 L28.6814447,17.3670623 C28.7364678,17.2183976 28.7918305,17.0873887 28.8505896,16.9620178 L29.2938309,16.0376855 L29.8123043,16.0376855 L28.8568731,17.9635015 L28.8572128,17.962908 Z M33.8536115,16.5020772 C33.6871838,16.4424332 33.4820361,16.405638 33.3027017,16.405638 C32.7648684,16.405638 32.4583356,16.7902077 32.4583356,17.198368 C32.4583356,17.4096439 32.5857038,17.5918398 32.9379193,17.5918398 C33.0228314,17.5918398 33.1070642,17.5833828 33.1824661,17.5636499 L33.3190048,16.9354599 L33.8176088,16.9354599 L33.6124611,17.8716617 C33.3843872,17.9513353 33.1009505,17.9942136 32.8496107,17.9942136 C32.1940891,17.9942136 31.9206721,17.6918398 31.9206721,17.2609792 C31.9206721,16.5562315 32.5007917,16.008457 33.3483844,16.008457 C33.5730619,16.008457 33.8013056,16.034273 34,16.0829377 L33.8536115,16.5019288 L33.8536115,16.5020772 Z M31.5051122,16.420178 L30.3010584,16.4206231 L30.3939523,16.0458457 L31.5905338,16.0458457 L31.5051122,16.420178 Z M31.4093313,16.824184 L30.2047681,16.824184 L30.1113647,17.1989614 C30.1113647,17.1989614 30.6846913,17.1989614 30.9711848,17.1986647 L31.3183056,17.1986647 L31.4093313,16.824184 Z M31.2340727,17.5964392 L30.016433,17.5964392 L29.9230297,17.9710682 L31.1433866,17.9710682 L31.2340727,17.5964392 Z M24.1031532,16.4474777 L23.386495,16.4474777 L23.3049793,16.829822 L23.9859745,16.829822 L23.9044589,17.1918398 L23.2268602,17.1918398 L23.1320983,17.6169139 L23.8490962,17.6169139 L23.7675806,17.9988131 L22.555545,17.9988131 L22.9726333,16.0738872 L24.1846689,16.0738872 L24.1031532,16.4474777 L24.1031532,16.4474777 Z" id="Shape" fill="#FFFFFF"></path>
                </g>
                <text id="Verhalen" font-family="Arial-ItalicMT, Arial" font-size="10" font-style="italic" font-weight="normal" letter-spacing="-0.300000012" fill="#09477F">
                    <tspan x="40" y="15">Verhalen</tspan>
                </text>
            </g>
        </g>
    </g>
</svg>