<svg xmlns="http://www.w3.org/2000/svg" focusable="false" width="16px" height="16px" viewBox="0 0 16 16">
	<title/>
	<g stroke="none" stroke-width="1" fill="none" fill-rule="evenodd">
		<g transform="translate(-2.000000, -3.000000)" fill="#ffffff">
			<path d="M17,8 C17,4.686 14.314,2 11,2 C7.686,2 5,4.686 5,8 C5,10.978 7.172,13.443 10.018,13.913 C10.015,13.943 10,13.969 10,14 L10,20 C10,20.55 10.45,21 11,21 C11.55,21 12,20.55 12,20 L12,14 C12,13.969 11.985,13.943 11.982,13.913 C14.828,13.443 17,10.978 17,8 L17,8 Z M11,12 C8.791,12 7,10.209 7,8 C7,5.791 8.791,4 11,4 C13.209,4 15,5.791 15,8 C15,10.209 13.209,12 11,12 L11,12 Z" transform="translate(11.000000, 11.500000) rotate(-45.000000) translate(-11.000000, -11.500000) "/>
		</g>
	</g>
</svg>